<?xml version="1.0" encoding="iso-8859-1"?>
<!-- Generator: Adobe Illustrator 19.0.0, SVG Export Plug-In . SVG Version: 6.00 Build 0)  -->
<svg version="1.1" id="Layer_1" xmlns="http://www.w3.org/2000/svg" xmlns:xlink="http://www.w3.org/1999/xlink" x="0px" y="0px"
	 viewBox="0 0 507.539 507.539" style="enable-background:new 0 0 507.539 507.539;" xml:space="preserve">
<g>
	<g>
		<g>
			<polygon points="253.509,371.457 337.98,455.937 362.488,432.154 278.016,347.683 			"/>
			<path d="M2.577,211.545c-1.63,1.587-2.56,3.772-2.577,6.059c-0.017,2.27,0.888,4.471,2.5,6.084l72.414,72.405
				c3.302,3.311,8.644,3.336,11.989,0.077l34.005-33.178l-84.48-84.48L2.577,211.545z"/>
			<polygon points="48.642,166.591 133.122,251.071 157.561,227.229 73.081,142.749 			"/>
			<path d="M447.719,59.819c-79.42-79.42-208.811-79.787-288.691-0.913c-0.128,0.102-0.239,0.213-0.358,0.333l-73.37,71.595
				l84.48,84.48l72.789-71.031c33.28-33.263,87.416-33.263,120.687,0c33.263,33.28,33.263,87.415,0.085,120.593l-73.079,70.921
				l84.471,84.471l73.404-71.228c0.171-0.171,0.341-0.341,0.495-0.529C527.505,268.63,527.147,139.247,447.719,59.819z"/>
			<path d="M203.006,420.472c-1.647,1.587-2.577,3.772-2.594,6.059c-0.017,2.287,0.879,4.48,2.5,6.093l72.405,72.414
				c1.672,1.664,3.849,2.5,6.033,2.5c2.142,0,4.284-0.802,5.948-2.415l38.443-37.299l-84.48-84.48L203.006,420.472z"/>
		</g>
	</g>
</g>
<g>
</g>
<g>
</g>
<g>
</g>
<g>
</g>
<g>
</g>
<g>
</g>
<g>
</g>
<g>
</g>
<g>
</g>
<g>
</g>
<g>
</g>
<g>
</g>
<g>
</g>
<g>
</g>
<g>
</g>
</svg>
